<svg height="27" viewBox="0 0 27 27" width="27" xmlns="http://www.w3.org/2000/svg" xmlns:xlink="http://www.w3.org/1999/xlink"><clipPath id="a"><path d="m0 .03h27v27h-27z"/></clipPath><g clip-path="url(#a)" transform="matrix(0 1 -1 0 27.03 0)"><path d="m14.727 26.744a12.841 12.841 0 0 1 -12.905-12.944 12.831 12.831 0 0 1 13.104-12.953 12.833 12.833 0 0 1 12.8 13.046 12.84 12.84 0 0 1 -13 12.851m.34-24.877a11.928 11.928 0 1 0 11.642 12.169 11.987 11.987 0 0 0 -11.641-12.169" transform="translate(-1.052 -.489)"/><path d="m25.987 25.988-4.087 3.85-.65-.67c1.471-1.444 2.933-2.9 4.432-4.315a.78.78 0 0 1 .754.053c1.454 1.4 2.871 2.836 4.3 4.261l-.618.661-4.125-3.841" transform="translate(-12.272 -14.314)"/></g></svg>